<mxfile host="app.diagrams.net" modified="2023-04-18T15:29:25.783Z" agent="Mozilla/5.0 (X11; Linux x86_64; rv:109.0) Gecko/20100101 Firefox/111.0" etag="kTZOyavRu_hGLPGHcMKp" version="21.1.8" type="device">
  <diagram name="Page-1" id="Vplc2FbkKxrORxa0Ai_x">
    <mxGraphModel dx="847" dy="423" grid="1" gridSize="10" guides="1" tooltips="1" connect="1" arrows="1" fold="1" page="1" pageScale="1" pageWidth="850" pageHeight="1100" math="0" shadow="0">
      <root>
        <mxCell id="0" />
        <mxCell id="1" parent="0" />
        <mxCell id="NzjxVL5mABf7hT2KAsvz-4" style="edgeStyle=orthogonalEdgeStyle;rounded=0;orthogonalLoop=1;jettySize=auto;html=1;entryX=0;entryY=0.5;entryDx=0;entryDy=0;" edge="1" parent="1" source="NzjxVL5mABf7hT2KAsvz-1" target="NzjxVL5mABf7hT2KAsvz-2">
          <mxGeometry relative="1" as="geometry" />
        </mxCell>
        <mxCell id="NzjxVL5mABf7hT2KAsvz-44" style="edgeStyle=orthogonalEdgeStyle;rounded=0;orthogonalLoop=1;jettySize=auto;html=1;endArrow=none;endFill=0;startArrow=classic;startFill=1;" edge="1" parent="1" source="NzjxVL5mABf7hT2KAsvz-1">
          <mxGeometry relative="1" as="geometry">
            <mxPoint x="170" y="100" as="targetPoint" />
          </mxGeometry>
        </mxCell>
        <mxCell id="NzjxVL5mABf7hT2KAsvz-1" value="&lt;div&gt;m=0&lt;/div&gt;&lt;div&gt;t=0&lt;br&gt;&lt;/div&gt;&lt;div&gt;is_done=0&lt;br&gt;&lt;/div&gt;" style="ellipse;whiteSpace=wrap;html=1;aspect=fixed;fillColor=#d5e8d4;strokeColor=#82b366;" vertex="1" parent="1">
          <mxGeometry x="130" y="140" width="80" height="80" as="geometry" />
        </mxCell>
        <mxCell id="NzjxVL5mABf7hT2KAsvz-33" style="edgeStyle=orthogonalEdgeStyle;rounded=0;orthogonalLoop=1;jettySize=auto;html=1;" edge="1" parent="1" source="NzjxVL5mABf7hT2KAsvz-2" target="NzjxVL5mABf7hT2KAsvz-32">
          <mxGeometry relative="1" as="geometry" />
        </mxCell>
        <mxCell id="NzjxVL5mABf7hT2KAsvz-36" style="edgeStyle=orthogonalEdgeStyle;rounded=0;orthogonalLoop=1;jettySize=auto;html=1;" edge="1" parent="1" source="NzjxVL5mABf7hT2KAsvz-2" target="NzjxVL5mABf7hT2KAsvz-35">
          <mxGeometry relative="1" as="geometry">
            <Array as="points">
              <mxPoint x="320" y="300" />
              <mxPoint x="410" y="300" />
            </Array>
          </mxGeometry>
        </mxCell>
        <mxCell id="NzjxVL5mABf7hT2KAsvz-2" value="&lt;div&gt;m=1&lt;/div&gt;t=t+1" style="ellipse;whiteSpace=wrap;html=1;aspect=fixed;" vertex="1" parent="1">
          <mxGeometry x="280" y="140" width="80" height="80" as="geometry" />
        </mxCell>
        <mxCell id="NzjxVL5mABf7hT2KAsvz-18" style="edgeStyle=orthogonalEdgeStyle;rounded=0;orthogonalLoop=1;jettySize=auto;html=1;entryX=0;entryY=0.5;entryDx=0;entryDy=0;" edge="1" parent="1" source="NzjxVL5mABf7hT2KAsvz-3" target="NzjxVL5mABf7hT2KAsvz-17">
          <mxGeometry relative="1" as="geometry" />
        </mxCell>
        <mxCell id="NzjxVL5mABf7hT2KAsvz-24" style="edgeStyle=orthogonalEdgeStyle;rounded=0;orthogonalLoop=1;jettySize=auto;html=1;entryX=1;entryY=1;entryDx=0;entryDy=0;dashed=1;" edge="1" parent="1" source="NzjxVL5mABf7hT2KAsvz-3" target="NzjxVL5mABf7hT2KAsvz-2">
          <mxGeometry relative="1" as="geometry">
            <Array as="points">
              <mxPoint x="470" y="260" />
              <mxPoint x="348" y="260" />
            </Array>
          </mxGeometry>
        </mxCell>
        <mxCell id="NzjxVL5mABf7hT2KAsvz-3" value="m=0" style="ellipse;whiteSpace=wrap;html=1;aspect=fixed;direction=west;" vertex="1" parent="1">
          <mxGeometry x="430" y="140" width="80" height="80" as="geometry" />
        </mxCell>
        <mxCell id="NzjxVL5mABf7hT2KAsvz-5" style="edgeStyle=orthogonalEdgeStyle;rounded=0;orthogonalLoop=1;jettySize=auto;html=1;exitX=1;exitY=0.5;exitDx=0;exitDy=0;" edge="1" parent="1" source="NzjxVL5mABf7hT2KAsvz-2" target="NzjxVL5mABf7hT2KAsvz-3">
          <mxGeometry relative="1" as="geometry">
            <mxPoint x="220" y="190" as="sourcePoint" />
            <mxPoint x="290" y="190" as="targetPoint" />
          </mxGeometry>
        </mxCell>
        <mxCell id="NzjxVL5mABf7hT2KAsvz-6" value="&lt;font color=&quot;#ff0000&quot;&gt;invest&lt;/font&gt;" style="text;html=1;strokeColor=none;fillColor=none;align=center;verticalAlign=middle;whiteSpace=wrap;rounded=0;" vertex="1" parent="1">
          <mxGeometry x="210" y="180" width="60" height="30" as="geometry" />
        </mxCell>
        <mxCell id="NzjxVL5mABf7hT2KAsvz-7" value="&lt;font color=&quot;#ff0000&quot;&gt;month&lt;/font&gt;" style="text;html=1;strokeColor=none;fillColor=none;align=center;verticalAlign=middle;whiteSpace=wrap;rounded=0;" vertex="1" parent="1">
          <mxGeometry x="360" y="180" width="60" height="30" as="geometry" />
        </mxCell>
        <mxCell id="NzjxVL5mABf7hT2KAsvz-25" style="edgeStyle=orthogonalEdgeStyle;rounded=0;orthogonalLoop=1;jettySize=auto;html=1;entryX=0.5;entryY=0;entryDx=0;entryDy=0;dashed=1;" edge="1" parent="1" source="NzjxVL5mABf7hT2KAsvz-17" target="NzjxVL5mABf7hT2KAsvz-2">
          <mxGeometry relative="1" as="geometry">
            <Array as="points">
              <mxPoint x="620" y="120" />
              <mxPoint x="320" y="120" />
            </Array>
          </mxGeometry>
        </mxCell>
        <mxCell id="NzjxVL5mABf7hT2KAsvz-17" value="m=0" style="ellipse;whiteSpace=wrap;html=1;aspect=fixed;" vertex="1" parent="1">
          <mxGeometry x="580" y="140" width="80" height="80" as="geometry" />
        </mxCell>
        <mxCell id="NzjxVL5mABf7hT2KAsvz-20" value="&lt;font color=&quot;#ff0000&quot;&gt;delivery&lt;/font&gt;" style="text;html=1;strokeColor=none;fillColor=none;align=center;verticalAlign=middle;whiteSpace=wrap;rounded=0;" vertex="1" parent="1">
          <mxGeometry x="510" y="180" width="60" height="30" as="geometry" />
        </mxCell>
        <mxCell id="NzjxVL5mABf7hT2KAsvz-26" value="&lt;font color=&quot;#ff0000&quot;&gt;invest&lt;/font&gt;" style="text;html=1;strokeColor=none;fillColor=none;align=center;verticalAlign=middle;whiteSpace=wrap;rounded=0;" vertex="1" parent="1">
          <mxGeometry x="440" y="80" width="60" height="30" as="geometry" />
        </mxCell>
        <mxCell id="NzjxVL5mABf7hT2KAsvz-27" value="&lt;font color=&quot;#ff0000&quot;&gt;invest&lt;/font&gt;" style="text;html=1;strokeColor=none;fillColor=none;align=center;verticalAlign=middle;whiteSpace=wrap;rounded=0;" vertex="1" parent="1">
          <mxGeometry x="360" y="230" width="60" height="30" as="geometry" />
        </mxCell>
        <mxCell id="NzjxVL5mABf7hT2KAsvz-57" style="edgeStyle=orthogonalEdgeStyle;rounded=0;orthogonalLoop=1;jettySize=auto;html=1;entryX=0;entryY=0.5;entryDx=0;entryDy=0;dashed=1;" edge="1" parent="1" source="NzjxVL5mABf7hT2KAsvz-32" target="NzjxVL5mABf7hT2KAsvz-35">
          <mxGeometry relative="1" as="geometry" />
        </mxCell>
        <mxCell id="NzjxVL5mABf7hT2KAsvz-32" value="m=0" style="ellipse;whiteSpace=wrap;html=1;aspect=fixed;" vertex="1" parent="1">
          <mxGeometry x="200" y="380" width="80" height="80" as="geometry" />
        </mxCell>
        <mxCell id="NzjxVL5mABf7hT2KAsvz-35" value="is_done=1" style="ellipse;whiteSpace=wrap;html=1;aspect=fixed;fillColor=#fff2cc;strokeColor=#d6b656;" vertex="1" parent="1">
          <mxGeometry x="370" y="380" width="80" height="80" as="geometry" />
        </mxCell>
        <mxCell id="NzjxVL5mABf7hT2KAsvz-37" value="&lt;font color=&quot;#006600&quot;&gt;t&amp;gt;=tmax&lt;/font&gt;" style="text;html=1;strokeColor=none;fillColor=none;align=center;verticalAlign=middle;whiteSpace=wrap;rounded=0;fontStyle=1" vertex="1" parent="1">
          <mxGeometry x="260" y="260" width="60" height="30" as="geometry" />
        </mxCell>
        <mxCell id="NzjxVL5mABf7hT2KAsvz-38" value="&lt;div&gt;&lt;font color=&quot;#006600&quot;&gt;i=1 and b=0&lt;br&gt;&lt;/font&gt;&lt;/div&gt;" style="text;html=1;strokeColor=none;fillColor=none;align=center;verticalAlign=middle;whiteSpace=wrap;rounded=0;fontStyle=1" vertex="1" parent="1">
          <mxGeometry x="240" y="330" width="80" height="30" as="geometry" />
        </mxCell>
        <mxCell id="NzjxVL5mABf7hT2KAsvz-40" value="&lt;div&gt;&lt;font color=&quot;#006600&quot;&gt;else&lt;br&gt;&lt;/font&gt;&lt;/div&gt;" style="text;html=1;strokeColor=none;fillColor=none;align=center;verticalAlign=middle;whiteSpace=wrap;rounded=0;fontStyle=1" vertex="1" parent="1">
          <mxGeometry x="400" y="330" width="80" height="30" as="geometry" />
        </mxCell>
        <mxCell id="NzjxVL5mABf7hT2KAsvz-46" value="&lt;font color=&quot;#ff0000&quot;&gt;month&lt;/font&gt;" style="text;html=1;strokeColor=none;fillColor=none;align=center;verticalAlign=middle;whiteSpace=wrap;rounded=0;" vertex="1" parent="1">
          <mxGeometry x="290" y="300" width="60" height="30" as="geometry" />
        </mxCell>
        <mxCell id="NzjxVL5mABf7hT2KAsvz-47" value="&lt;font color=&quot;#ff0000&quot;&gt;delivery&lt;/font&gt;" style="text;html=1;strokeColor=none;fillColor=none;align=center;verticalAlign=middle;whiteSpace=wrap;rounded=0;" vertex="1" parent="1">
          <mxGeometry x="290" y="430" width="60" height="30" as="geometry" />
        </mxCell>
        <mxCell id="NzjxVL5mABf7hT2KAsvz-52" value="&lt;font color=&quot;#006600&quot;&gt;t&amp;lt;tmax&lt;/font&gt;" style="text;html=1;strokeColor=none;fillColor=none;align=center;verticalAlign=middle;whiteSpace=wrap;rounded=0;fontStyle=1" vertex="1" parent="1">
          <mxGeometry x="360" y="150" width="60" height="30" as="geometry" />
        </mxCell>
        <mxCell id="NzjxVL5mABf7hT2KAsvz-54" style="edgeStyle=orthogonalEdgeStyle;rounded=0;orthogonalLoop=1;jettySize=auto;html=1;entryX=0.5;entryY=1;entryDx=0;entryDy=0;" edge="1" parent="1">
          <mxGeometry relative="1" as="geometry">
            <Array as="points">
              <mxPoint x="470" y="410" />
              <mxPoint x="470" y="480" />
              <mxPoint x="410" y="480" />
            </Array>
            <mxPoint x="448.7298334620741" y="410" as="sourcePoint" />
            <mxPoint x="410" y="460" as="targetPoint" />
          </mxGeometry>
        </mxCell>
        <mxCell id="NzjxVL5mABf7hT2KAsvz-55" value="&lt;font color=&quot;#ff0000&quot;&gt;done&lt;/font&gt;" style="text;html=1;strokeColor=none;fillColor=none;align=center;verticalAlign=middle;whiteSpace=wrap;rounded=0;" vertex="1" parent="1">
          <mxGeometry x="470" y="430" width="60" height="30" as="geometry" />
        </mxCell>
        <mxCell id="NzjxVL5mABf7hT2KAsvz-59" style="edgeStyle=orthogonalEdgeStyle;rounded=0;orthogonalLoop=1;jettySize=auto;html=1;endArrow=none;endFill=0;startArrow=classic;startFill=1;" edge="1" parent="1">
          <mxGeometry relative="1" as="geometry">
            <mxPoint x="160" y="540" as="targetPoint" />
            <mxPoint x="160" y="580" as="sourcePoint" />
          </mxGeometry>
        </mxCell>
        <mxCell id="NzjxVL5mABf7hT2KAsvz-66" value="&lt;font color=&quot;#ff0000&quot;&gt;invest&lt;/font&gt;" style="text;html=1;strokeColor=none;fillColor=none;align=center;verticalAlign=middle;whiteSpace=wrap;rounded=0;" vertex="1" parent="1">
          <mxGeometry x="100" y="680" width="60" height="30" as="geometry" />
        </mxCell>
        <mxCell id="NzjxVL5mABf7hT2KAsvz-71" value="&lt;font color=&quot;#ff0000&quot;&gt;invest&lt;/font&gt;" style="text;html=1;strokeColor=none;fillColor=none;align=center;verticalAlign=middle;whiteSpace=wrap;rounded=0;" vertex="1" parent="1">
          <mxGeometry x="435" y="520" width="60" height="30" as="geometry" />
        </mxCell>
        <mxCell id="NzjxVL5mABf7hT2KAsvz-75" style="edgeStyle=orthogonalEdgeStyle;rounded=0;orthogonalLoop=1;jettySize=auto;html=1;entryX=0.5;entryY=1;entryDx=0;entryDy=0;" edge="1" parent="1" source="NzjxVL5mABf7hT2KAsvz-76">
          <mxGeometry relative="1" as="geometry">
            <Array as="points">
              <mxPoint x="100" y="610" />
              <mxPoint x="100" y="680" />
              <mxPoint x="160" y="680" />
            </Array>
            <mxPoint x="198.7298334620741" y="610" as="sourcePoint" />
            <mxPoint x="160" y="660" as="targetPoint" />
          </mxGeometry>
        </mxCell>
        <mxCell id="NzjxVL5mABf7hT2KAsvz-78" style="edgeStyle=orthogonalEdgeStyle;rounded=0;orthogonalLoop=1;jettySize=auto;html=1;" edge="1" parent="1" source="NzjxVL5mABf7hT2KAsvz-76" target="NzjxVL5mABf7hT2KAsvz-77">
          <mxGeometry relative="1" as="geometry" />
        </mxCell>
        <mxCell id="NzjxVL5mABf7hT2KAsvz-76" value="i=0" style="ellipse;whiteSpace=wrap;html=1;aspect=fixed;" vertex="1" parent="1">
          <mxGeometry x="120" y="580" width="80" height="80" as="geometry" />
        </mxCell>
        <mxCell id="NzjxVL5mABf7hT2KAsvz-82" style="edgeStyle=orthogonalEdgeStyle;rounded=0;orthogonalLoop=1;jettySize=auto;html=1;entryX=0.863;entryY=0.075;entryDx=0;entryDy=0;entryPerimeter=0;" edge="1" parent="1" source="NzjxVL5mABf7hT2KAsvz-77" target="NzjxVL5mABf7hT2KAsvz-76">
          <mxGeometry relative="1" as="geometry">
            <Array as="points">
              <mxPoint x="300" y="560" />
              <mxPoint x="189" y="560" />
            </Array>
          </mxGeometry>
        </mxCell>
        <mxCell id="NzjxVL5mABf7hT2KAsvz-89" style="edgeStyle=orthogonalEdgeStyle;rounded=0;orthogonalLoop=1;jettySize=auto;html=1;entryX=1;entryY=1;entryDx=0;entryDy=0;" edge="1" parent="1" source="NzjxVL5mABf7hT2KAsvz-77" target="NzjxVL5mABf7hT2KAsvz-76">
          <mxGeometry relative="1" as="geometry">
            <Array as="points">
              <mxPoint x="290" y="680" />
              <mxPoint x="188" y="680" />
            </Array>
          </mxGeometry>
        </mxCell>
        <mxCell id="NzjxVL5mABf7hT2KAsvz-77" value="i=1" style="ellipse;whiteSpace=wrap;html=1;aspect=fixed;" vertex="1" parent="1">
          <mxGeometry x="260" y="580" width="80" height="80" as="geometry" />
        </mxCell>
        <mxCell id="NzjxVL5mABf7hT2KAsvz-79" value="&lt;font color=&quot;#ff0000&quot;&gt;invest&lt;/font&gt;" style="text;html=1;strokeColor=none;fillColor=none;align=center;verticalAlign=middle;whiteSpace=wrap;rounded=0;" vertex="1" parent="1">
          <mxGeometry x="200" y="620" width="60" height="30" as="geometry" />
        </mxCell>
        <mxCell id="NzjxVL5mABf7hT2KAsvz-84" style="edgeStyle=orthogonalEdgeStyle;rounded=0;orthogonalLoop=1;jettySize=auto;html=1;entryX=0.5;entryY=1;entryDx=0;entryDy=0;" edge="1" parent="1">
          <mxGeometry relative="1" as="geometry">
            <Array as="points">
              <mxPoint x="360" y="610" />
              <mxPoint x="360" y="680" />
              <mxPoint x="300" y="680" />
            </Array>
            <mxPoint x="338.7298334620741" y="610" as="sourcePoint" />
            <mxPoint x="300" y="660" as="targetPoint" />
          </mxGeometry>
        </mxCell>
        <mxCell id="NzjxVL5mABf7hT2KAsvz-85" value="&lt;font color=&quot;#ff0000&quot;&gt;invest&lt;/font&gt;" style="text;html=1;strokeColor=none;fillColor=none;align=center;verticalAlign=middle;whiteSpace=wrap;rounded=0;" vertex="1" parent="1">
          <mxGeometry x="200" y="535" width="60" height="30" as="geometry" />
        </mxCell>
        <mxCell id="NzjxVL5mABf7hT2KAsvz-86" value="&lt;font color=&quot;#ff0000&quot;&gt;invest&lt;/font&gt;" style="text;html=1;strokeColor=none;fillColor=none;align=center;verticalAlign=middle;whiteSpace=wrap;rounded=0;" vertex="1" parent="1">
          <mxGeometry x="300" y="680" width="60" height="30" as="geometry" />
        </mxCell>
        <mxCell id="NzjxVL5mABf7hT2KAsvz-87" value="&lt;div&gt;&lt;font color=&quot;#006600&quot;&gt;b=1&lt;br&gt;&lt;/font&gt;&lt;/div&gt;" style="text;html=1;strokeColor=none;fillColor=none;align=center;verticalAlign=middle;whiteSpace=wrap;rounded=0;fontStyle=1" vertex="1" parent="1">
          <mxGeometry x="190" y="560" width="80" height="30" as="geometry" />
        </mxCell>
        <mxCell id="NzjxVL5mABf7hT2KAsvz-88" value="&lt;div&gt;&lt;font color=&quot;#006600&quot;&gt;b=1&lt;br&gt;&lt;/font&gt;&lt;/div&gt;" style="text;html=1;strokeColor=none;fillColor=none;align=center;verticalAlign=middle;whiteSpace=wrap;rounded=0;fontStyle=1" vertex="1" parent="1">
          <mxGeometry x="290" y="700" width="80" height="30" as="geometry" />
        </mxCell>
        <mxCell id="NzjxVL5mABf7hT2KAsvz-90" value="&lt;font color=&quot;#ff0000&quot;&gt;delivery&lt;/font&gt;" style="text;html=1;strokeColor=none;fillColor=none;align=center;verticalAlign=middle;whiteSpace=wrap;rounded=0;" vertex="1" parent="1">
          <mxGeometry x="200" y="680" width="60" height="30" as="geometry" />
        </mxCell>
        <mxCell id="NzjxVL5mABf7hT2KAsvz-91" value="&lt;div&gt;&lt;font color=&quot;#006600&quot;&gt;b=0&lt;/font&gt;&lt;/div&gt;" style="text;html=1;strokeColor=none;fillColor=none;align=center;verticalAlign=middle;whiteSpace=wrap;rounded=0;fontStyle=1" vertex="1" parent="1">
          <mxGeometry x="190" y="700" width="80" height="30" as="geometry" />
        </mxCell>
      </root>
    </mxGraphModel>
  </diagram>
</mxfile>
